# xmcd
#
# Track frame offsets:
#	150
#	18035
#	41579
#	59743
#	77046
#	89839
#	117034
#	125383
#	139963
#	161815
#	176670
#	192267
#
# Disc length: 2640 seconds
#
# Revision: 0
# Processed by: cddbd v1.5.1PL0 Copyright (c) Steve Scherf et al.
# Submitted via: audiograbber 1.83.01
#
DISCID=a60a4e0c
DTITLE=The Riffbrokers - Fix It If You Hate It
DYEAR=2004
DGENRE=Alternate Country-Rock
TTITLE0=The Horse On Your Shoulder Patch
TTITLE1=Fix It If You Hate It
TTITLE2=Potholes
TTITLE3=Accident
TTITLE4=No Mending
TTITLE5=Wyoming Boy
TTITLE6=IED
TTITLE7=High
TTITLE8=Death Of The ´80´s Arcades
TTITLE9=Unbearable Afternoon
TTITLE10=Break
TTITLE11=Reprise
EXTD=
EXTT0=
EXTT1=
EXTT2=
EXTT3=
EXTT4=
EXTT5=
EXTT6=
EXTT7=
EXTT8=
EXTT9=
EXTT10=
EXTT11=
PLAYORDER=
